<svg width="20" height="20" viewBox="0 0 20 20" fill="none" xmlns="http://www.w3.org/2000/svg">
    <path fill-rule="evenodd" clip-rule="evenodd" d="M3.3848 6.39143C4.5733 3.53757 7.35801 1.67536 10.4495 1.6671C13.7813 1.64955 16.7439 3.78371 17.7825 6.94957C18.8211 10.1154 17.6984 13.5898 15.0037 15.5493C12.3089 17.5089 8.65771 17.506 5.96612 15.5421L3.56612 17.9421C3.3221 18.1858 2.9268 18.1858 2.68278 17.9421C2.43907 17.6981 2.43907 17.3028 2.68278 17.0588L5.00778 14.7338C2.83604 12.5336 2.1963 9.2453 3.3848 6.39143ZM4.49909 11.8079C5.49699 14.2126 7.8459 15.7788 10.4495 15.7754V15.7421C13.983 15.7376 16.8516 12.8839 16.8744 9.35043C16.8778 6.74688 15.3116 4.39797 12.9069 3.40007C10.5022 2.40218 7.73306 2.95206 5.89207 4.79305C4.05108 6.63404 3.5012 9.40316 4.49909 11.8079Z" fill="#151B20"/>
</svg>
